REM DIRINDEX 1\4,1\2\5,1\2\6,1\2\7,1\3\8,1\3\9,1\3\10,1\3\11
REM DIRNAME folder01,folder02,folder03,folder04,folder05,folder06,folder07,folder08,folder09,folder10,folder11
TITLE ""
FILE "t_k_202-212.mp3" MP3
  TRACK 01 AUDIO
    TITLE "5:cjc108_0606"
    INDEX 01 00:00:00
  TRACK 02 AUDIO
    TITLE "0:"
    INDEX 01 00:01:01
  TRACK 03 AUDIO
    TITLE "6:cjc108_0607"
    INDEX 01 00:01:11
  TRACK 04 AUDIO
    TITLE "0:"
    INDEX 01 00:04:15
  TRACK 05 AUDIO
    TITLE "7:cjc108_0608"
    INDEX 01 00:04:31
  TRACK 06 AUDIO
    TITLE "0:"
    INDEX 01 00:07:64
  TRACK 07 AUDIO
    TITLE "5:cjc108_0609"
    INDEX 01 00:08:38
  TRACK 08 AUDIO
    TITLE "0:"
    INDEX 01 00:09:61
  TRACK 09 AUDIO
    TITLE "6:cjc108_0610"
    INDEX 01 00:09:67
  TRACK 10 AUDIO
    TITLE "0:"
    INDEX 01 00:10:74
  TRACK 11 AUDIO
    TITLE "7:cjc108_0611"
    INDEX 01 00:11:13
  TRACK 12 AUDIO
    TITLE "0:"
    INDEX 01 00:16:48
  TRACK 13 AUDIO
    TITLE "5:cjc108_0612"
    INDEX 01 00:17:31
  TRACK 14 AUDIO
    TITLE "0:"
    INDEX 01 00:18:56
  TRACK 15 AUDIO
    TITLE "6:cjc108_0613"
    INDEX 01 00:18:60
  TRACK 16 AUDIO
    TITLE "0:"
    INDEX 01 00:19:73
  TRACK 17 AUDIO
    TITLE "7:cjc108_0614"
    INDEX 01 00:20:16
  TRACK 18 AUDIO
    TITLE "0:"
    INDEX 01 00:26:62
  TRACK 19 AUDIO
    TITLE "5:cjc108_0615"
    INDEX 01 00:27:45
  TRACK 20 AUDIO
    TITLE "0:"
    INDEX 01 00:28:64
  TRACK 21 AUDIO
    TITLE "6:cjc108_0616"
    INDEX 01 00:29:17
  TRACK 22 AUDIO
    TITLE "0:"
    INDEX 01 00:32:60
  TRACK 23 AUDIO
    TITLE "7:cjc108_0617"
    INDEX 01 00:33:19
  TRACK 24 AUDIO
    TITLE "0:"
    INDEX 01 00:39:09
  TRACK 25 AUDIO
    TITLE "5:cjc108_0618"
    INDEX 01 00:39:68
  TRACK 26 AUDIO
    TITLE "0:"
    INDEX 01 00:41:04
  TRACK 27 AUDIO
    TITLE "6:cjc108_0619"
    INDEX 01 00:41:26
  TRACK 28 AUDIO
    TITLE "0:"
    INDEX 01 00:42:43
  TRACK 29 AUDIO
    TITLE "7:cjc108_0620"
    INDEX 01 00:42:63
  TRACK 30 AUDIO
    TITLE "0:"
    INDEX 01 00:48:10
  TRACK 31 AUDIO
    TITLE "5:cjc108_0621"
    INDEX 01 00:48:71
  TRACK 32 AUDIO
    TITLE "0:"
    INDEX 01 00:50:15
  TRACK 33 AUDIO
    TITLE "6:cjc108_0622"
    INDEX 01 00:50:29
  TRACK 34 AUDIO
    TITLE "0:"
    INDEX 01 00:52:30
  TRACK 35 AUDIO
    TITLE "7:cjc108_0623"
    INDEX 01 00:52:53
  TRACK 36 AUDIO
    TITLE "0:"
    INDEX 01 01:00:25
  TRACK 37 AUDIO
    TITLE "5:cjc108_0624"
    INDEX 01 01:01:17
  TRACK 38 AUDIO
    TITLE "0:"
    INDEX 01 01:02:24
  TRACK 39 AUDIO
    TITLE "6:cjc108_0625"
    INDEX 01 01:02:44
  TRACK 40 AUDIO
    TITLE "0:"
    INDEX 01 01:05:52
  TRACK 41 AUDIO
    TITLE "7:cjc108_0626"
    INDEX 01 01:05:73
  TRACK 42 AUDIO
    TITLE "0:"
    INDEX 01 01:10:47
  TRACK 43 AUDIO
    TITLE "5:cjc108_0627"
    INDEX 01 01:11:33
  TRACK 44 AUDIO
    TITLE "0:"
    INDEX 01 01:12:44
  TRACK 45 AUDIO
    TITLE "6:cjc108_0628"
    INDEX 01 01:12:48
  TRACK 46 AUDIO
    TITLE "0:"
    INDEX 01 01:14:72
  TRACK 47 AUDIO
    TITLE "7:cjc108_0629"
    INDEX 01 01:15:11
  TRACK 48 AUDIO
    TITLE "0:"
    INDEX 01 01:22:54
  TRACK 49 AUDIO
    TITLE "5:cjc108_0630"
    INDEX 01 01:23:36
  TRACK 50 AUDIO
    TITLE "0:"
    INDEX 01 01:24:39
  TRACK 51 AUDIO
    TITLE "6:cjc108_0631"
    INDEX 01 01:24:65
  TRACK 52 AUDIO
    TITLE "0:"
    INDEX 01 01:25:60
  TRACK 53 AUDIO
    TITLE "7:cjc108_0632"
    INDEX 01 01:25:74
  TRACK 54 AUDIO
    TITLE "0:"
    INDEX 01 01:31:63
  TRACK 55 AUDIO
    TITLE "5:cjc108_0633"
    INDEX 01 01:32:47
  TRACK 56 AUDIO
    TITLE "0:"
    INDEX 01 01:33:58
  TRACK 57 AUDIO
    TITLE "6:cjc108_0634"
    INDEX 01 01:34:01
  TRACK 58 AUDIO
    TITLE "0:"
    INDEX 01 01:35:12
  TRACK 59 AUDIO
    TITLE "7:cjc108_0635"
    INDEX 01 01:35:24
  TRACK 60 AUDIO
    TITLE "0:"
    INDEX 01 01:41:63
  TRACK 61 AUDIO
    TITLE "5:cjc108_0636"
    INDEX 01 01:42:49
  TRACK 62 AUDIO
    TITLE "0:"
    INDEX 01 01:43:74
  TRACK 63 AUDIO
    TITLE "6:cjc108_0637"
    INDEX 01 01:44:28
  TRACK 64 AUDIO
    TITLE "0:"
    INDEX 01 01:45:47
  TRACK 65 AUDIO
    TITLE "7:cjc108_0638"
    INDEX 01 01:46:06
  TRACK 66 AUDIO
    TITLE "0:"
    INDEX 01 01:50:62
